<svg width="30" height="31" viewBox="0 0 30 31" fill="none" xmlns="http://www.w3.org/2000/svg">
<path d="M25.9091 0.0976562H4.09091C1.83156 0.0976562 0 1.92922 0 4.18857V26.0067C0 28.2661 1.83156 30.0977 4.09091 30.0977H25.9091C28.1684 30.0977 30 28.2661 30 26.0067V4.18857C30 1.92922 28.1684 0.0976562 25.9091 0.0976562Z" fill="white"/>
<path d="M10.805 8.27947C10.805 8.78517 10.6551 9.2795 10.3741 9.69997C10.0932 10.1204 9.69388 10.4481 9.22668 10.6417C8.75948 10.8352 8.24539 10.8858 7.74942 10.7872C7.25344 10.6885 6.79786 10.445 6.44028 10.0874C6.0827 9.72984 5.83919 9.27426 5.74054 8.77828C5.64188 8.28231 5.69251 7.76822 5.88603 7.30102C6.07955 6.83383 6.40727 6.4345 6.82773 6.15356C7.2482 5.87261 7.74254 5.72266 8.24823 5.72266C8.92634 5.72266 9.57667 5.99203 10.0562 6.47153C10.5357 6.95103 10.805 7.60136 10.805 8.27947Z" fill="#F57920"/>
<path d="M10.227 12.5403V23.8364C10.2274 23.9197 10.2114 24.0023 10.1798 24.0794C10.1483 24.1565 10.1017 24.2267 10.043 24.2857C9.98421 24.3448 9.91435 24.3917 9.8374 24.4237C9.76045 24.4557 9.67794 24.4722 9.59461 24.4722H6.89972C6.81639 24.4724 6.73383 24.4561 6.6568 24.4243C6.57976 24.3926 6.50977 24.3459 6.45085 24.2869C6.39192 24.228 6.34522 24.158 6.31344 24.081C6.28165 24.004 6.2654 23.9214 6.26563 23.8381V12.5403C6.26563 12.3722 6.33243 12.2109 6.45135 12.092C6.57026 11.9731 6.73155 11.9062 6.89972 11.9062H9.59461C9.76248 11.9067 9.92333 11.9737 10.0419 12.0926C10.1604 12.2114 10.227 12.3725 10.227 12.5403Z" fill="#F57920"/>
<path d="M24.3134 18.421V23.8892C24.3137 23.9658 24.2987 24.0417 24.2695 24.1126C24.2403 24.1834 24.1974 24.2477 24.1432 24.3019C24.089 24.3561 24.0247 24.399 23.9538 24.4282C23.883 24.4575 23.8071 24.4724 23.7305 24.4722H20.8327C20.7561 24.4724 20.6802 24.4575 20.6094 24.4282C20.5386 24.399 20.4742 24.3561 20.42 24.3019C20.3659 24.2477 20.3229 24.1834 20.2937 24.1126C20.2645 24.0417 20.2496 23.9658 20.2498 23.8892V18.5898C20.2498 17.7989 20.4816 15.1261 18.1822 15.1261C16.4009 15.1261 16.0379 16.9551 15.9663 17.7767V23.8892C15.9663 24.0423 15.906 24.1893 15.7985 24.2984C15.6911 24.4075 15.545 24.4699 15.3918 24.4722H12.593C12.5165 24.4722 12.4408 24.4571 12.3701 24.4278C12.2995 24.3984 12.2354 24.3555 12.1814 24.3013C12.1274 24.2472 12.0846 24.1829 12.0555 24.1122C12.0264 24.0414 12.0115 23.9657 12.0117 23.8892V12.4909C12.0115 12.4144 12.0264 12.3387 12.0555 12.268C12.0846 12.1972 12.1274 12.133 12.1814 12.0788C12.2354 12.0246 12.2995 11.9817 12.3701 11.9524C12.4408 11.923 12.5165 11.908 12.593 11.908H15.3918C15.5464 11.908 15.6947 11.9694 15.804 12.0787C15.9134 12.188 15.9748 12.3363 15.9748 12.4909V13.4761C16.6362 12.4841 17.6163 11.7188 19.7077 11.7188C24.3407 11.7188 24.3134 16.0449 24.3134 18.421Z" fill="#F57920"/>
</svg>
