<svg width="307" height="306" viewBox="0 0 307 306" fill="none" xmlns="http://www.w3.org/2000/svg">
<path d="M306.042 152.992C306.042 183.101 297.109 212.535 280.373 237.57C263.637 262.606 239.85 282.118 212.019 293.641C184.189 305.163 153.565 308.178 124.02 302.304C94.4751 296.43 67.3364 281.931 46.0358 260.64C24.7351 239.349 10.2292 212.223 4.3524 182.692C-1.52443 153.161 1.49177 122.551 13.0196 94.733C24.5474 66.9153 44.0691 43.1391 69.116 26.411C94.1629 9.68298 123.61 0.754416 153.734 0.754416C173.75 0.702569 193.578 4.60492 212.081 12.2372C230.583 19.8695 247.394 31.0812 261.547 45.2281C275.701 59.375 286.918 76.1781 294.553 94.6718C302.189 113.165 306.093 132.985 306.042 152.992Z" fill="white"/>
<path d="M153.732 305.908C113.157 305.908 74.245 289.797 45.5546 261.12C16.8642 232.443 0.746094 193.548 0.746094 152.993C0.743413 122.745 9.71472 93.1763 26.5255 68.0253C43.3362 42.8742 67.2313 23.2709 95.1888 11.6944C123.146 0.117955 153.911 -2.91168 183.591 2.98867C213.271 8.88901 240.534 23.4543 261.932 44.8426C283.33 66.2308 297.902 93.4813 303.805 123.148C309.709 152.814 306.678 183.564 295.096 211.509C283.514 239.453 263.901 263.337 238.739 280.14C213.576 296.943 183.993 305.91 153.732 305.908ZM153.732 1.4331C123.742 1.4331 94.4261 10.3219 69.4907 26.9755C44.5553 43.6291 25.1205 67.2995 13.644 94.9934C2.16749 122.687 -0.835282 153.161 5.01539 182.561C10.8661 211.96 25.3074 238.966 46.5132 260.162C67.7191 281.358 94.7369 295.792 124.15 301.64C153.564 307.488 184.051 304.487 211.758 293.016C239.465 281.545 263.146 262.119 279.807 237.195C296.469 212.271 305.362 182.969 305.362 152.993C305.304 112.814 289.311 74.2978 260.887 45.8873C232.463 17.4767 193.929 1.49046 153.732 1.4331Z" fill="#181A1E"/>
<path d="M179.694 253.653C179.541 253.651 179.393 253.598 179.274 253.504C179.134 253.392 179.044 253.229 179.024 253.052C179.004 252.874 179.054 252.695 179.165 252.555C179.497 251.829 179.783 251.082 180.019 250.319C182.202 244.14 187.937 227.891 200.763 230.304C201.59 227.227 205.644 214.299 216.408 209.583C223.336 206.534 231.593 207.591 240.948 212.727C241.626 208.526 245.097 192.143 258.681 182.223C269.257 174.512 283.37 172.412 300.711 176.003C300.798 176.02 300.881 176.055 300.954 176.105C301.028 176.155 301.092 176.219 301.141 176.293C301.19 176.367 301.224 176.45 301.241 176.538C301.258 176.625 301.257 176.715 301.239 176.802C301.197 176.978 301.089 177.13 300.938 177.229C300.787 177.327 300.603 177.364 300.426 177.331C283.546 173.821 269.785 175.84 259.536 183.321C244.419 194.351 242.222 213.676 242.209 213.866C242.196 213.979 242.156 214.087 242.093 214.182C242.029 214.276 241.943 214.354 241.843 214.408C241.743 214.461 241.631 214.489 241.517 214.489C241.404 214.489 241.292 214.461 241.192 214.408C231.878 209.095 223.743 207.889 217.005 210.844C205.63 215.831 202.01 231.171 201.983 231.279C201.943 231.453 201.836 231.604 201.685 231.699C201.532 231.796 201.347 231.83 201.169 231.794C189.049 228.962 183.653 244.262 181.362 250.766C181.112 251.685 180.747 252.568 180.277 253.395C180.208 253.482 180.118 253.55 180.017 253.595C179.915 253.64 179.805 253.66 179.694 253.653Z" fill="#D1D3D4"/>
<path d="M183.983 273.385H123.488L139.337 181.059H168.134L183.983 273.385Z" fill="white"/>
<path d="M183.979 274.06H123.484C123.386 274.062 123.288 274.042 123.198 274.001C123.109 273.96 123.029 273.9 122.965 273.825C122.902 273.75 122.856 273.661 122.831 273.566C122.805 273.471 122.802 273.371 122.82 273.274L138.669 180.948C138.695 180.79 138.775 180.646 138.897 180.542C139.019 180.438 139.173 180.38 139.333 180.379H168.13C168.29 180.38 168.445 180.438 168.566 180.542C168.688 180.646 168.769 180.79 168.794 180.948L184.643 273.274C184.661 273.371 184.658 273.471 184.633 273.566C184.607 273.661 184.561 273.75 184.498 273.825C184.434 273.9 184.355 273.96 184.265 274.001C184.175 274.042 184.077 274.062 183.979 274.06ZM124.325 272.705H183.193L167.574 181.734H139.916L124.325 272.705Z" fill="#181A1E"/>
<path d="M168.969 195.72H137.732L133.977 180.719H172.725L168.969 195.72Z" fill="white"/>
<path d="M168.97 196.359H137.787C137.635 196.358 137.488 196.307 137.368 196.214C137.248 196.121 137.162 195.991 137.123 195.844L133.394 180.883C133.367 180.786 133.364 180.683 133.385 180.584C133.406 180.484 133.451 180.392 133.516 180.314C133.576 180.229 133.655 180.16 133.747 180.113C133.839 180.066 133.942 180.042 134.045 180.043H172.712C172.815 180.042 172.918 180.066 173.01 180.113C173.102 180.16 173.181 180.229 173.241 180.314C173.305 180.392 173.351 180.484 173.375 180.583C173.398 180.682 173.399 180.784 173.376 180.883L169.621 195.898C169.573 196.033 169.485 196.149 169.369 196.232C169.252 196.314 169.113 196.359 168.97 196.359ZM138.262 195.004H168.441L171.858 181.452H134.845L138.262 195.004Z" fill="#181A1E"/>
<path d="M118.333 133.887C118.333 133.887 101.956 144.118 96.2614 161.179C90.5671 178.241 103.542 211.184 103.542 211.184L133.369 178.905L118.333 133.887Z" fill="white"/>
<path d="M103.566 211.859H103.444C103.332 211.84 103.227 211.793 103.139 211.722C103.051 211.651 102.983 211.558 102.942 211.452C102.4 210.097 89.9539 178.061 95.6482 160.973C101.342 143.885 117.829 133.436 117.991 133.328C118.085 133.284 118.187 133.262 118.29 133.262C118.393 133.262 118.494 133.284 118.588 133.328C118.683 133.367 118.768 133.426 118.838 133.501C118.908 133.575 118.962 133.664 118.995 133.762L133.976 178.739C134.016 178.854 134.025 178.977 134.001 179.096C133.977 179.215 133.922 179.326 133.84 179.416L104.013 211.696C103.889 211.804 103.73 211.862 103.566 211.859ZM117.991 134.941C114.778 137.149 101.722 146.798 96.9361 161.379C91.9469 176.286 101.708 204.243 103.81 209.921L132.593 178.752L117.991 134.941Z" fill="#181A1E"/>
<path d="M189.133 133.887C189.133 133.887 205.511 144.118 211.205 161.179C216.899 178.241 203.925 211.184 203.925 211.184L174.098 178.905L189.133 133.887Z" fill="white"/>
<path d="M203.897 211.862C203.803 211.863 203.709 211.845 203.623 211.807C203.536 211.77 203.459 211.715 203.395 211.645L173.568 179.365C173.487 179.275 173.432 179.164 173.408 179.045C173.384 178.926 173.393 178.803 173.433 178.688L188.441 133.683C188.474 133.586 188.527 133.497 188.598 133.423C188.668 133.348 188.753 133.289 188.848 133.25C188.941 133.206 189.043 133.184 189.146 133.184C189.249 133.184 189.351 133.206 189.445 133.25C189.607 133.358 206.093 143.806 211.788 160.895C217.482 177.983 205.009 210.019 204.494 211.374C204.453 211.48 204.385 211.573 204.297 211.644C204.209 211.715 204.104 211.762 203.992 211.781L203.897 211.862ZM174.897 178.742L203.68 209.91C205.782 204.232 215.543 176.33 210.554 161.369C205.7 146.788 192.712 137.139 189.499 134.93L174.897 178.742Z" fill="#181A1E"/>
<path d="M180.115 186.412C188.25 166.939 193.389 138.711 193.389 107.299C193.389 59.6925 167.114 34.9068 157.135 27.2096C156.052 26.3723 154.722 25.918 153.352 25.918C151.983 25.918 150.653 26.3723 149.57 27.2096C139.591 34.9068 113.316 59.7332 113.316 107.299C113.316 138.711 118.441 166.925 126.589 186.412C126.589 186.412 134.724 190.478 153.352 190.478C171.981 190.478 180.115 186.412 180.115 186.412Z" fill="#E95226"/>
<path d="M149.57 27.2096C137.324 36.9612 127.744 49.6504 121.723 64.0967H184.983C178.961 49.6504 169.382 36.9612 157.136 27.2096C156.053 26.3723 154.722 25.918 153.353 25.918C151.984 25.918 150.653 26.3723 149.57 27.2096Z" fill="white"/>
<path d="M184.982 64.7733H121.721C121.61 64.7727 121.501 64.7449 121.403 64.6923C121.306 64.6397 121.222 64.5639 121.161 64.4715C121.099 64.3792 121.061 64.2732 121.05 64.1627C121.039 64.0523 121.056 63.9409 121.098 63.8382C127.143 49.2742 136.796 36.4871 149.149 26.6801C150.352 25.7504 151.831 25.2461 153.352 25.2461C154.873 25.2461 156.351 25.7504 157.555 26.6801C169.907 36.4871 179.56 49.2742 185.606 63.8382C185.648 63.9409 185.664 64.0523 185.653 64.1627C185.642 64.2732 185.604 64.3792 185.543 64.4715C185.481 64.5639 185.398 64.6397 185.3 64.6923C185.202 64.7449 185.093 64.7727 184.982 64.7733ZM122.752 63.4181H183.951C177.976 49.4565 168.621 37.1995 156.728 27.7506C155.759 26.9968 154.566 26.5875 153.338 26.5875C152.11 26.5875 150.918 26.9968 149.949 27.7506C138.062 37.1991 128.715 49.4569 122.752 63.4181Z" fill="#181A1E"/>
<path d="M154.925 123.883C168.411 123.883 179.343 112.956 179.343 99.4765C179.343 85.9973 168.411 75.0703 154.925 75.0703C141.44 75.0703 130.508 85.9973 130.508 99.4765C130.508 112.956 141.44 123.883 154.925 123.883Z" fill="white"/>
<path d="M154.925 124.535C149.961 124.537 145.108 123.069 140.979 120.314C136.851 117.559 133.632 113.643 131.731 109.06C129.829 104.476 129.33 99.4324 130.297 94.5657C131.264 89.699 133.653 85.2282 137.162 81.7189C140.671 78.2095 145.143 75.8191 150.011 74.8502C154.879 73.8812 159.926 74.3772 164.512 76.2753C169.099 78.1734 173.019 81.3885 175.777 85.5138C178.535 89.6391 180.007 94.4893 180.007 99.451C180 106.099 177.356 112.473 172.654 117.175C167.952 121.877 161.577 124.524 154.925 124.535ZM154.925 75.7494C150.229 75.7468 145.637 77.1365 141.731 79.7428C137.825 82.3491 134.78 86.0549 132.982 90.3913C131.183 94.7277 130.712 99.4998 131.628 104.104C132.543 108.708 134.804 112.937 138.125 116.257C141.446 119.576 145.677 121.836 150.284 122.751C154.89 123.667 159.664 123.196 164.003 121.398C168.341 119.6 172.049 116.557 174.656 112.653C177.264 108.748 178.654 104.159 178.651 99.4645C178.644 93.1771 176.142 87.1492 171.694 82.7034C167.246 78.2575 161.216 75.7566 154.925 75.7494Z" fill="#181A1E"/>
<path d="M154.922 114.533C163.241 114.533 169.985 107.793 169.985 99.4776C169.985 91.1625 163.241 84.4219 154.922 84.4219C146.603 84.4219 139.859 91.1625 139.859 99.4776C139.859 107.793 146.603 114.533 154.922 114.533Z" fill="#181A1E"/>
<path d="M154.928 115.213C151.815 115.213 148.772 114.29 146.183 112.561C143.595 110.832 141.577 108.375 140.386 105.5C139.194 102.625 138.883 99.4619 139.49 96.41C140.097 93.358 141.596 90.5546 143.798 88.3543C145.999 86.1539 148.804 84.6555 151.857 84.0484C154.911 83.4413 158.075 83.7529 160.952 84.9437C163.828 86.1345 166.286 88.1511 168.016 90.7384C169.745 93.3258 170.669 96.3676 170.669 99.4794C170.669 103.652 169.01 107.654 166.058 110.604C163.106 113.555 159.103 115.213 154.928 115.213ZM154.928 85.1012C152.083 85.1012 149.302 85.9445 146.936 87.5244C144.571 89.1043 142.727 91.3498 141.638 93.9771C140.55 96.6044 140.265 99.4953 140.82 102.284C141.375 105.073 142.745 107.635 144.756 109.646C146.768 111.657 149.331 113.026 152.122 113.581C154.912 114.136 157.804 113.851 160.433 112.763C163.061 111.675 165.308 109.832 166.889 107.467C168.469 105.103 169.313 102.323 169.313 99.4794C169.309 95.6672 167.793 92.0121 165.096 89.3165C162.399 86.6208 158.742 85.1048 154.928 85.1012Z" fill="#181A1E"/>
<path d="M166.867 98.7874C166.706 98.789 166.55 98.7322 166.428 98.6276C166.305 98.5229 166.225 98.3774 166.202 98.2182C164.657 87.6752 155.356 88.1359 154.963 88.163C154.786 88.1708 154.613 88.1105 154.479 87.9945C154.346 87.8785 154.262 87.7157 154.244 87.5397C154.237 87.4513 154.247 87.3624 154.275 87.2782C154.303 87.1939 154.347 87.116 154.405 87.0491C154.463 86.9822 154.534 86.9275 154.613 86.8884C154.693 86.8493 154.78 86.8265 154.868 86.8214C154.977 86.8214 165.809 86.2252 167.531 98.0285C167.554 98.2043 167.508 98.3823 167.401 98.5242C167.295 98.666 167.137 98.7605 166.962 98.7874H166.867Z" fill="white"/>
<path d="M149.665 89.5864C149.564 89.585 149.464 89.5612 149.372 89.5167C149.281 89.4722 149.2 89.408 149.137 89.3289C149.027 89.1868 148.979 89.0072 149.002 88.8294C149.025 88.6516 149.117 88.4901 149.259 88.3803C150.083 87.7747 151.041 87.3751 152.052 87.2149C152.231 87.1956 152.411 87.2472 152.553 87.3586C152.694 87.47 152.787 87.6324 152.811 87.8112C152.822 87.8985 152.816 87.9871 152.793 88.0721C152.77 88.157 152.73 88.2364 152.675 88.3058C152.621 88.3751 152.554 88.433 152.477 88.4761C152.4 88.5191 152.315 88.5464 152.228 88.5565C151.453 88.6801 150.718 88.9867 150.086 89.4509C149.964 89.5399 149.816 89.5874 149.665 89.5864Z" fill="white"/>
<path d="M177.16 179.864H176.943C176.775 179.806 176.637 179.683 176.558 179.523C176.479 179.364 176.467 179.179 176.523 179.01C180.738 165.616 184.147 151.981 186.732 138.18C186.748 138.091 186.781 138.006 186.83 137.93C186.879 137.854 186.942 137.788 187.017 137.736C187.091 137.685 187.175 137.648 187.263 137.629C187.352 137.61 187.443 137.608 187.532 137.624C187.621 137.64 187.706 137.674 187.782 137.722C187.858 137.771 187.924 137.835 187.975 137.909C188.027 137.983 188.064 138.067 188.083 138.155C188.102 138.243 188.104 138.335 188.088 138.424C185.504 152.288 182.076 165.983 177.824 179.43C177.775 179.565 177.684 179.679 177.564 179.757C177.445 179.835 177.303 179.873 177.16 179.864Z" fill="white"/>
<path d="M157.218 217.796C157.049 217.793 156.888 217.727 156.765 217.612C156.642 217.497 156.567 217.34 156.553 217.172L155.198 199.853C155.19 199.765 155.201 199.676 155.228 199.592C155.256 199.508 155.3 199.43 155.358 199.363C155.416 199.296 155.487 199.241 155.567 199.202C155.646 199.163 155.733 199.14 155.821 199.135C155.91 199.128 155.999 199.138 156.083 199.166C156.167 199.193 156.245 199.237 156.312 199.295C156.379 199.353 156.434 199.424 156.473 199.504C156.512 199.583 156.535 199.67 156.54 199.758L157.896 217.064C157.903 217.153 157.893 217.242 157.865 217.327C157.838 217.412 157.794 217.491 157.736 217.559C157.678 217.627 157.607 217.683 157.528 217.724C157.448 217.764 157.361 217.789 157.272 217.796H157.218Z" fill="#181A1E"/>
<path d="M143.25 227.905H143.155C142.977 227.881 142.816 227.788 142.707 227.646C142.597 227.504 142.549 227.324 142.572 227.146L144.931 208.892C144.954 208.712 145.048 208.549 145.192 208.439C145.336 208.328 145.517 208.279 145.697 208.303C145.877 208.326 146.04 208.42 146.151 208.563C146.261 208.707 146.31 208.889 146.287 209.068L143.928 227.322C143.905 227.485 143.823 227.634 143.699 227.741C143.574 227.848 143.414 227.906 143.25 227.905Z" fill="#181A1E"/>
<path d="M165.636 231.782C165.475 231.783 165.319 231.727 165.197 231.622C165.075 231.517 164.995 231.372 164.972 231.213L162.504 216.306C162.477 216.128 162.519 215.947 162.623 215.8C162.727 215.654 162.884 215.553 163.06 215.52C163.238 215.492 163.419 215.535 163.566 215.638C163.713 215.742 163.814 215.899 163.847 216.076L166.314 230.982C166.342 231.158 166.299 231.338 166.195 231.482C166.091 231.627 165.934 231.725 165.758 231.755L165.636 231.782Z" fill="#181A1E"/>
<path d="M85.174 108.354C84.9953 108.35 84.8249 108.278 84.6985 108.152C84.5721 108.025 84.4996 107.855 84.4961 107.676V103.353C84.4961 103.174 84.5675 103.001 84.6947 102.874C84.8218 102.747 84.9942 102.676 85.174 102.676C85.3538 102.676 85.5262 102.747 85.6533 102.874C85.7805 103.001 85.8519 103.174 85.8519 103.353V107.676C85.8519 107.856 85.7805 108.028 85.6533 108.155C85.5262 108.282 85.3538 108.354 85.174 108.354Z" fill="#D1D3D4"/>
<path d="M85.174 117.379C84.9942 117.379 84.8218 117.307 84.6947 117.18C84.5675 117.053 84.4961 116.881 84.4961 116.701V112.338C84.4961 112.158 84.5675 111.986 84.6947 111.859C84.8218 111.732 84.9942 111.66 85.174 111.66C85.3538 111.66 85.5262 111.732 85.6533 111.859C85.7805 111.986 85.8519 112.158 85.8519 112.338V116.661C85.8574 116.753 85.844 116.845 85.8124 116.932C85.7809 117.019 85.7318 117.099 85.6683 117.166C85.6048 117.234 85.5282 117.287 85.4432 117.324C85.3582 117.36 85.2665 117.379 85.174 117.379Z" fill="#D1D3D4"/>
<path d="M91.8544 110.7H87.5295C87.3497 110.7 87.1772 110.628 87.0501 110.501C86.923 110.374 86.8516 110.201 86.8516 110.022C86.8516 109.842 86.923 109.669 87.0501 109.542C87.1772 109.415 87.3497 109.344 87.5295 109.344H91.8544C92.0342 109.344 92.2066 109.415 92.3337 109.542C92.4608 109.669 92.5323 109.842 92.5323 110.022C92.5323 110.201 92.4608 110.374 92.3337 110.501C92.2066 110.628 92.0342 110.7 91.8544 110.7Z" fill="#D1D3D4"/>
<path d="M82.825 110.7H78.4865C78.3067 110.7 78.1343 110.628 78.0072 110.501C77.88 110.374 77.8086 110.201 77.8086 110.022C77.8121 109.843 77.8846 109.673 78.011 109.546C78.1374 109.42 78.3078 109.347 78.4865 109.344H82.825C83.0037 109.347 83.1741 109.42 83.3005 109.546C83.4268 109.673 83.4994 109.843 83.5028 110.022C83.5028 110.201 83.4314 110.374 83.3043 110.501C83.1772 110.628 83.0047 110.7 82.825 110.7Z" fill="#D1D3D4"/>
<path d="M43.4005 126.213C43.2208 126.213 43.0483 126.142 42.9212 126.015C42.7941 125.888 42.7227 125.715 42.7227 125.536V121.213C42.7227 121.033 42.7941 120.861 42.9212 120.734C43.0483 120.607 43.2208 120.535 43.4005 120.535C43.5803 120.535 43.7528 120.607 43.8799 120.734C44.007 120.861 44.0784 121.033 44.0784 121.213V125.536C44.0784 125.715 44.007 125.888 43.8799 126.015C43.7528 126.142 43.5803 126.213 43.4005 126.213Z" fill="#D1D3D4"/>
<path d="M43.4005 135.252C43.2208 135.252 43.0483 135.181 42.9212 135.054C42.7941 134.927 42.7227 134.754 42.7227 134.575V130.252C42.7227 130.072 42.7941 129.9 42.9212 129.773C43.0483 129.646 43.2208 129.574 43.4005 129.574C43.5803 129.574 43.7528 129.646 43.8799 129.773C44.007 129.9 44.0784 130.072 44.0784 130.252V134.575C44.0784 134.754 44.007 134.927 43.8799 135.054C43.7528 135.181 43.5803 135.252 43.4005 135.252Z" fill="#D1D3D4"/>
<path d="M50.0848 128.602H45.7599C45.5801 128.602 45.4077 128.53 45.2806 128.403C45.1535 128.276 45.082 128.104 45.082 127.924C45.082 127.744 45.1535 127.572 45.2806 127.445C45.4077 127.318 45.5801 127.246 45.7599 127.246H50.0848C50.2646 127.246 50.4371 127.318 50.5642 127.445C50.6913 127.572 50.7627 127.744 50.7627 127.924C50.7627 128.104 50.6913 128.276 50.5642 128.403C50.4371 128.53 50.2646 128.602 50.0848 128.602Z" fill="#D1D3D4"/>
<path d="M41.038 128.602H36.713C36.5333 128.602 36.3608 128.53 36.2337 128.403C36.1066 128.276 36.0352 128.104 36.0352 127.924C36.0352 127.744 36.1066 127.572 36.2337 127.445C36.3608 127.318 36.5333 127.246 36.713 127.246H41.038C41.2177 127.246 41.3902 127.318 41.5173 127.445C41.6444 127.572 41.7158 127.744 41.7158 127.924C41.7158 128.104 41.6444 128.276 41.5173 128.403C41.3902 128.53 41.2177 128.602 41.038 128.602Z" fill="#D1D3D4"/>
<path d="M218.986 96.4164C218.807 96.4164 218.634 96.345 218.507 96.2179C218.38 96.0908 218.309 95.9185 218.309 95.7388V91.4159C218.309 91.2362 218.38 91.0638 218.507 90.9367C218.634 90.8097 218.807 90.7383 218.986 90.7383C219.166 90.7383 219.339 90.8097 219.466 90.9367C219.593 91.0638 219.664 91.2362 219.664 91.4159V95.7388C219.664 95.9185 219.593 96.0908 219.466 96.2179C219.339 96.345 219.166 96.4164 218.986 96.4164Z" fill="#D1D3D4"/>
<path d="M218.986 105.44C218.807 105.44 218.634 105.368 218.507 105.241C218.38 105.114 218.309 104.942 218.309 104.762V100.439C218.312 100.261 218.385 100.09 218.511 99.964C218.637 99.8377 218.808 99.7652 218.986 99.7617C219.166 99.7617 219.339 99.8331 219.466 99.9602C219.593 100.087 219.664 100.26 219.664 100.439V104.762C219.664 104.942 219.593 105.114 219.466 105.241C219.339 105.368 219.166 105.44 218.986 105.44Z" fill="#D1D3D4"/>
<path d="M225.671 98.7855H221.346C221.166 98.7855 220.994 98.714 220.867 98.5869C220.739 98.4598 220.668 98.2874 220.668 98.1076C220.668 97.9278 220.739 97.7554 220.867 97.6282C220.994 97.5011 221.166 97.4297 221.346 97.4297H225.671C225.851 97.4297 226.023 97.5011 226.15 97.6282C226.277 97.7554 226.349 97.9278 226.349 98.1076C226.349 98.2874 226.277 98.4598 226.15 98.5869C226.023 98.714 225.851 98.7855 225.671 98.7855Z" fill="#D1D3D4"/>
<path d="M216.64 98.7855H212.315C212.135 98.7855 211.962 98.714 211.835 98.5869C211.708 98.4598 211.637 98.2874 211.637 98.1076C211.637 97.9278 211.708 97.7554 211.835 97.6282C211.962 97.5011 212.135 97.4297 212.315 97.4297H216.64C216.819 97.4297 216.992 97.5011 217.119 97.6282C217.246 97.7554 217.317 97.9278 217.317 98.1076C217.314 98.2863 217.241 98.4567 217.115 98.5831C216.989 98.7095 216.818 98.782 216.64 98.7855Z" fill="#D1D3D4"/>
<path d="M267.889 121.702C267.709 121.702 267.537 121.63 267.409 121.503C267.282 121.376 267.211 121.204 267.211 121.024V116.701C267.211 116.521 267.282 116.349 267.409 116.222C267.537 116.095 267.709 116.023 267.889 116.023C268.069 116.023 268.241 116.095 268.368 116.222C268.495 116.349 268.567 116.521 268.567 116.701V121.024C268.567 121.204 268.495 121.376 268.368 121.503C268.241 121.63 268.069 121.702 267.889 121.702Z" fill="#D1D3D4"/>
<path d="M267.889 130.729C267.709 130.729 267.537 130.657 267.409 130.53C267.282 130.403 267.211 130.231 267.211 130.051V125.728C267.211 125.549 267.282 125.376 267.409 125.249C267.537 125.122 267.709 125.051 267.889 125.051C268.068 125.054 268.238 125.127 268.364 125.253C268.491 125.379 268.563 125.55 268.567 125.728V130.051C268.567 130.231 268.495 130.403 268.368 130.53C268.241 130.657 268.069 130.729 267.889 130.729Z" fill="#D1D3D4"/>
<path d="M274.561 124.059H270.236C270.058 124.055 269.887 123.983 269.761 123.857C269.635 123.73 269.562 123.56 269.559 123.381C269.559 123.201 269.63 123.029 269.757 122.902C269.884 122.775 270.057 122.703 270.236 122.703H274.561C274.741 122.703 274.914 122.775 275.041 122.902C275.168 123.029 275.239 123.201 275.239 123.381C275.239 123.561 275.168 123.733 275.041 123.86C274.914 123.987 274.741 124.059 274.561 124.059Z" fill="#D1D3D4"/>
<path d="M265.53 124.059H261.205C261.025 124.059 260.853 123.987 260.726 123.86C260.599 123.733 260.527 123.561 260.527 123.381C260.527 123.201 260.599 123.029 260.726 122.902C260.853 122.775 261.025 122.703 261.205 122.703H265.53C265.71 122.703 265.882 122.775 266.01 122.902C266.137 123.029 266.208 123.201 266.208 123.381C266.208 123.561 266.137 123.733 266.01 123.86C265.882 123.987 265.71 124.059 265.53 124.059Z" fill="#D1D3D4"/>
<path d="M236.869 55.5296C236.69 55.5296 236.517 55.4582 236.39 55.3312C236.263 55.2041 236.191 55.0318 236.191 54.8521V50.5291C236.191 50.3494 236.263 50.1771 236.39 50.05C236.517 49.9229 236.69 49.8516 236.869 49.8516C237.049 49.8516 237.221 49.9229 237.349 50.05C237.476 50.1771 237.547 50.3494 237.547 50.5291V54.8521C237.547 55.0318 237.476 55.2041 237.349 55.3312C237.221 55.4582 237.049 55.5296 236.869 55.5296Z" fill="#D1D3D4"/>
<path d="M236.869 64.5687C236.69 64.5687 236.517 64.4973 236.39 64.3702C236.263 64.2432 236.191 64.0708 236.191 63.8911V59.5682C236.191 59.3885 236.263 59.2162 236.39 59.0891C236.517 58.962 236.69 58.8906 236.869 58.8906C237.049 58.8906 237.221 58.962 237.349 59.0891C237.476 59.2162 237.547 59.3885 237.547 59.5682V63.8911C237.547 64.0708 237.476 64.2432 237.349 64.3702C237.221 64.4973 237.049 64.5687 236.869 64.5687Z" fill="#D1D3D4"/>
<path d="M243.554 57.8909H239.229C239.049 57.8909 238.876 57.8195 238.749 57.6924C238.622 57.5653 238.551 57.3928 238.551 57.213C238.551 57.0333 238.622 56.8608 238.749 56.7337C238.876 56.6066 239.049 56.5352 239.229 56.5352H243.554C243.733 56.5352 243.906 56.6066 244.033 56.7337C244.16 56.8608 244.231 57.0333 244.231 57.213C244.231 57.3928 244.16 57.5653 244.033 57.6924C243.906 57.8195 243.733 57.8909 243.554 57.8909Z" fill="#D1D3D4"/>
<path d="M234.511 57.8909H230.186C230.006 57.8909 229.833 57.8195 229.706 57.6924C229.579 57.5653 229.508 57.3928 229.508 57.213C229.508 57.0333 229.579 56.8608 229.706 56.7337C229.833 56.6066 230.006 56.5352 230.186 56.5352H234.511C234.69 56.5352 234.863 56.6066 234.99 56.7337C235.117 56.8608 235.188 57.0333 235.188 57.213C235.188 57.3928 235.117 57.5653 234.99 57.6924C234.863 57.8195 234.69 57.8909 234.511 57.8909Z" fill="#D1D3D4"/>
<path d="M122.656 269.144H122.548C122.37 269.124 122.208 269.034 122.096 268.895C121.984 268.755 121.932 268.577 121.951 268.399C121.951 268.114 125.097 240.849 112.623 229.398C107.553 224.736 100.516 223.286 91.7038 225.089C91.6071 225.112 91.5061 225.112 91.4094 225.088C91.3127 225.065 91.2231 225.018 91.148 224.953C91.0694 224.895 91.0053 224.819 90.9607 224.732C90.916 224.645 90.8919 224.549 90.8904 224.452C90.8904 224.194 90.0227 198.704 73.9296 187.957C64.5205 181.67 51.7491 181.507 35.9679 187.51C35.8541 187.551 35.7316 187.561 35.6127 187.54C35.4937 187.518 35.3825 187.466 35.29 187.388C35.1979 187.307 35.1283 187.203 35.088 187.086C35.0476 186.97 35.0378 186.845 35.0595 186.724C35.0595 186.616 37.4728 175.504 31.3447 169.595C27.0876 165.53 19.7122 164.784 9.43537 167.481C9.34899 167.506 9.25858 167.512 9.16958 167.501C9.08058 167.489 8.99486 167.459 8.91757 167.414C8.84028 167.368 8.77303 167.308 8.71989 167.235C8.66674 167.163 8.6288 167.081 8.60835 166.993C8.56261 166.821 8.58679 166.637 8.67564 166.483C8.76448 166.328 8.91081 166.214 9.08287 166.167C19.8477 163.348 27.657 164.175 32.2938 168.633C37.7169 173.918 37.0796 182.645 36.6051 185.83C52.305 180.084 65.0764 180.409 74.6889 186.846C83.42 192.7 87.7314 202.607 89.8058 209.884C91.0765 214.36 91.8807 218.956 92.2055 223.598C101.113 221.945 108.285 223.598 113.545 228.395C126.52 240.32 123.443 267.396 123.307 268.535C123.291 268.698 123.216 268.849 123.096 268.962C122.976 269.074 122.82 269.139 122.656 269.144Z" fill="#D1D3D4"/>
<path d="M256.513 265.347C227.088 292.238 188.287 306.524 148.441 305.138C108.595 303.752 70.8818 286.805 43.3984 257.934C44.3882 257.419 45.405 256.945 46.4489 256.579C73.2797 245.738 87.8679 268.084 87.8679 268.084C87.8679 268.084 94.8637 231.156 137.462 231.156C180.061 231.156 189.971 260.211 189.971 260.211C189.971 260.211 198.716 242.594 217.968 243.868C237.22 245.141 240.135 269.182 240.135 269.182C245.293 266.852 250.856 265.549 256.513 265.347Z" fill="white"/>
<path d="M153.73 305.906C132.995 305.994 112.462 301.831 93.401 293.673C74.3397 285.515 57.1549 273.536 42.909 258.476C42.8361 258.399 42.7823 258.307 42.7517 258.206C42.7211 258.104 42.7146 257.997 42.7327 257.893C42.7467 257.789 42.7862 257.69 42.8477 257.605C42.9092 257.52 42.9908 257.451 43.0852 257.405C44.0948 256.874 45.1311 256.394 46.1899 255.969C60.3171 250.237 71.0549 253.733 77.5761 257.676C81.4029 260.009 84.7822 263.006 87.5546 266.526C89.4392 259.614 99.6617 230.492 137.461 230.492C174.812 230.492 187.462 252.974 190.065 258.693C192.532 254.627 201.575 242.16 218.007 243.203C235.429 244.301 239.876 263.734 240.662 268.206C245.685 266.109 251.045 264.934 256.484 264.737C256.622 264.736 256.757 264.775 256.873 264.849C256.988 264.924 257.079 265.031 257.135 265.157C257.187 265.285 257.199 265.426 257.17 265.561C257.141 265.697 257.072 265.82 256.972 265.916C228.775 291.686 191.937 305.954 153.73 305.906ZM44.5223 258.124C71.7154 286.36 108.795 302.97 147.977 304.466C187.16 305.961 225.399 292.227 254.668 266.146C249.773 266.516 244.979 267.731 240.5 269.737C240.403 269.787 240.296 269.813 240.188 269.813C240.079 269.813 239.972 269.787 239.876 269.737C239.782 269.684 239.701 269.61 239.64 269.521C239.579 269.432 239.539 269.329 239.524 269.222C238.885 265.047 237.6 260.996 235.714 257.216C231.646 249.261 225.708 245.019 217.994 244.504C199.406 243.339 190.729 260.305 190.648 260.468C190.586 260.586 190.493 260.685 190.377 260.752C190.262 260.819 190.13 260.852 189.997 260.847C189.863 260.84 189.734 260.792 189.627 260.71C189.521 260.628 189.442 260.515 189.4 260.387C189.292 260.102 179.097 231.793 137.529 231.793C95.9604 231.793 88.6528 267.786 88.5308 268.179C88.5056 268.312 88.4412 268.434 88.346 268.53C88.2508 268.626 88.129 268.691 87.9963 268.717C87.8637 268.743 87.7262 268.729 87.6016 268.677C87.477 268.625 87.3709 268.536 87.297 268.423C84.4881 264.535 80.9237 261.253 76.8169 258.774C67.7332 253.354 57.6056 252.757 46.7051 257.175C45.9866 257.446 45.268 257.771 44.5223 258.124Z" fill="#181A1E"/>
<path d="M206.062 272.707C205.967 272.707 205.873 272.687 205.786 272.647C205.699 272.608 205.622 272.549 205.561 272.476C196.83 262.841 189.291 260.429 184.424 260.104C181.515 259.838 178.589 260.392 175.978 261.703C175.826 261.779 175.651 261.795 175.488 261.749C175.324 261.702 175.184 261.596 175.096 261.451C175.007 261.306 174.976 261.133 175.009 260.966C175.042 260.8 175.136 260.652 175.273 260.551C175.408 260.47 189.115 252.298 206.564 271.568C206.648 271.667 206.703 271.788 206.721 271.916C206.74 272.045 206.722 272.176 206.67 272.295C206.618 272.413 206.533 272.515 206.425 272.588C206.318 272.661 206.192 272.702 206.062 272.707Z" fill="#181A1E"/>
<path d="M236.894 240.767C236.723 240.767 236.558 240.703 236.433 240.588C236.307 240.472 236.23 240.313 236.216 240.143C236.216 239.601 235.321 226.971 244.351 218.19C250.994 211.712 261.189 209.124 274.639 210.52C274.728 210.529 274.814 210.555 274.893 210.597C274.972 210.639 275.041 210.697 275.098 210.766C275.155 210.835 275.197 210.915 275.223 211C275.249 211.086 275.258 211.176 275.249 211.265C275.24 211.354 275.213 211.44 275.171 211.519C275.129 211.598 275.071 211.668 275.002 211.724C274.933 211.781 274.853 211.823 274.768 211.849C274.682 211.875 274.592 211.884 274.503 211.875C261.474 210.52 251.645 212.986 245.3 219.165C236.731 227.513 237.572 239.926 237.585 240.048C237.593 240.137 237.582 240.227 237.555 240.312C237.528 240.397 237.484 240.476 237.426 240.544C237.368 240.612 237.297 240.668 237.217 240.708C237.138 240.749 237.051 240.773 236.962 240.78L236.894 240.767Z" fill="#D1D3D4"/>
<path d="M78.4871 75.9099C74.7866 75.9099 71.1693 74.8131 68.0925 72.7582C65.0157 70.7033 62.6176 67.7826 61.2015 64.3654C59.7854 60.9483 59.4149 57.1881 60.1369 53.5605C60.8588 49.9328 62.6407 46.6006 65.2573 43.9852C67.8739 41.3698 71.2076 39.5887 74.837 38.8672C78.4663 38.1456 82.2282 38.5159 85.647 39.9314C89.0657 41.3468 91.9877 43.7437 94.0436 46.8191C96.0994 49.8945 97.1968 53.5101 97.1968 57.2089C97.1932 62.1676 95.2208 66.9222 91.7128 70.4285C88.2049 73.9349 83.4481 75.9063 78.4871 75.9099ZM78.4871 39.863C75.0548 39.863 71.6996 40.8803 68.8457 42.7863C65.9919 44.6923 63.7676 47.4013 62.4541 50.5709C61.1406 53.7404 60.797 57.2281 61.4666 60.5929C62.1362 63.9576 63.789 67.0484 66.216 69.4743C68.643 71.9001 71.7351 73.5522 75.1015 74.2215C78.4678 74.8908 81.9571 74.5472 85.1281 73.2344C88.2991 71.9215 91.0094 69.6982 92.9163 66.8457C94.8232 63.9932 95.841 60.6396 95.841 57.2089C95.8374 52.6095 94.0079 48.1996 90.7542 44.9474C87.5004 41.6952 83.0885 39.8666 78.4871 39.863Z" fill="#D1D3D4"/>
<path d="M56.2132 214.651C56.0862 214.651 55.9616 214.616 55.8537 214.549C55.7459 214.482 55.659 214.386 55.6031 214.272C39.3338 180.393 15.5128 191.004 15.2824 191.112C15.1188 191.189 14.9311 191.199 14.7608 191.138C14.5904 191.077 14.4513 190.95 14.374 190.787C14.2967 190.623 14.2875 190.436 14.3486 190.266C14.4096 190.095 14.5358 189.956 14.6994 189.879C14.9434 189.77 39.9304 178.55 56.8233 213.675C56.8627 213.755 56.8858 213.842 56.8914 213.931C56.897 214.02 56.885 214.11 56.856 214.194C56.8271 214.278 56.7817 214.356 56.7226 214.423C56.6635 214.49 56.5917 214.544 56.5115 214.583C56.4197 214.631 56.3169 214.655 56.2132 214.651Z" fill="#D1D3D4"/>
</svg>
