<svg width="30" height="31" viewBox="0 0 30 31" fill="none" xmlns="http://www.w3.org/2000/svg">
<g clip-path="url(#clip0_2742_10444)">
<path d="M16.0033 14.5858L22.7544 24.2423H19.9838L14.4747 16.3626V16.3621L13.6659 15.2054L7.23047 6H10.0011L15.1945 13.4291L16.0033 14.5858Z" fill="white"/>
<path d="M26.7584 0.0976562H3.24156C1.45134 0.0976562 0 1.549 0 3.33922V26.8561C0 28.6463 1.45134 30.0977 3.24156 30.0977H26.7584C28.5487 30.0977 30 28.6463 30 26.8561V3.33922C30 1.549 28.5487 0.0976562 26.7584 0.0976562ZM19.135 25.5382L13.5601 17.4248L6.58044 25.5382H4.77653L12.7592 16.2595L4.77653 4.64167H10.865L16.144 12.3246L22.7533 4.64167H24.5572L16.9452 13.4901L25.2235 25.5382H19.135Z" fill="white"/>
</g>
<defs>
<clipPath id="clip0_2742_10444">
<rect width="30" height="30" fill="white" transform="translate(0 0.0976562)"/>
</clipPath>
</defs>
</svg>
