<svg width="25" height="25" viewBox="0 0 25 25" fill="none" xmlns="http://www.w3.org/2000/svg">
<g clip-path="url(#clip0_2484_8043)">
<path d="M0.532031 6.04539C0.683259 5.38276 1.05501 4.79111 1.58641 4.36735C2.11781 3.9436 2.77736 3.71284 3.45703 3.71289H21.457C22.1367 3.71284 22.7962 3.9436 23.3276 4.36735C23.859 4.79111 24.2308 5.38276 24.382 6.04539L12.457 13.3339L0.532031 6.04539ZM0.457031 7.75839V18.4144L9.16153 13.0774L0.457031 7.75839ZM10.5985 13.9579L0.743531 19.9984C0.987021 20.5118 1.37132 20.9455 1.8517 21.2491C2.33209 21.5526 2.88879 21.7134 3.45703 21.7129H21.457C22.0252 21.713 22.5817 21.5518 23.0618 21.248C23.5419 20.9442 23.9259 20.5104 24.169 19.9969L14.314 13.9564L12.457 15.0919L10.5985 13.9564V13.9579ZM15.7525 13.0789L24.457 18.4144V7.75839L15.7525 13.0774V13.0789Z" fill="#FD853A"/>
</g>
<defs>
<clipPath id="clip0_2484_8043">
<rect width="24" height="24" fill="#FD853A" transform="translate(0.457031 0.712891)"/>
</clipPath>
</defs>
</svg>
