<svg width="25" height="29" viewBox="0 0 25 29" fill="none" xmlns="http://www.w3.org/2000/svg">
<path d="M12.457 14.7129C13.282 14.7129 13.9885 14.4385 14.5765 13.8897C15.1635 13.3418 15.457 12.6829 15.457 11.9129C15.457 11.1429 15.1635 10.4835 14.5765 9.93469C13.9885 9.38682 13.282 9.11289 12.457 9.11289C11.632 9.11289 10.926 9.38682 10.339 9.93469C9.75103 10.4835 9.45703 11.1429 9.45703 11.9129C9.45703 12.6829 9.75103 13.3418 10.339 13.8897C10.926 14.4385 11.632 14.7129 12.457 14.7129ZM12.457 28.7129C8.43203 25.5162 5.42603 22.5468 3.43903 19.8047C1.45103 17.0635 0.457031 14.5262 0.457031 12.1929C0.457031 8.69289 1.66353 5.90456 4.07653 3.82789C6.48853 1.75122 9.28203 0.712891 12.457 0.712891C15.632 0.712891 18.4255 1.75122 20.8375 3.82789C23.2505 5.90456 24.457 8.69289 24.457 12.1929C24.457 14.5262 23.4635 17.0635 21.4765 19.8047C19.4885 22.5468 16.482 25.5162 12.457 28.7129Z" fill="#FD853A"/>
</svg>
