<svg width="25" height="25" viewBox="0 0 25 25" fill="none" xmlns="http://www.w3.org/2000/svg">
<g clip-path="url(#clip0_2484_8047)">
<path fill-rule="evenodd" clip-rule="evenodd" d="M3.28524 1.4801C3.5477 1.21803 3.86286 1.01474 4.20983 0.883684C4.55681 0.752632 4.92767 0.696815 5.29785 0.719934C5.66802 0.743052 6.02906 0.844577 6.35703 1.01778C6.685 1.19099 6.97242 1.43191 7.20024 1.7246L9.89274 5.1836C10.3862 5.8181 10.5602 6.6446 10.3652 7.4246L9.54474 10.7096C9.50232 10.8797 9.50461 11.058 9.55139 11.227C9.59817 11.396 9.68786 11.55 9.81174 11.6741L13.4972 15.3596C13.6215 15.4837 13.7758 15.5736 13.9451 15.6204C14.1144 15.6671 14.2929 15.6693 14.4632 15.6266L17.7467 14.8061C18.1317 14.7099 18.5334 14.7024 18.9217 14.7842C19.3099 14.8661 19.6744 15.0351 19.9877 15.2786L23.4467 17.9696C24.6902 18.9371 24.8042 20.7746 23.6912 21.8861L22.1402 23.4371C21.0302 24.5471 19.3712 25.0346 17.8247 24.4901C13.8665 23.0974 10.2726 20.8314 7.30974 17.8601C4.33867 14.8976 2.07265 11.3043 0.679738 7.3466C0.136738 5.8016 0.624238 4.1411 1.73424 3.0311L3.28524 1.4801Z" fill="#FD853A"/>
</g>
<defs>
<clipPath id="clip0_2484_8047">
<rect width="24" height="24" fill="#FD853A" transform="translate(0.457031 0.712891)"/>
</clipPath>
</defs>
</svg>
