<svg width="160" height="33" viewBox="0 0 160 33" fill="none" xmlns="http://www.w3.org/2000/svg">
<path d="M23.8912 20.0095C23.5459 20.3442 23.3872 20.8282 23.4659 21.3028L24.6512 27.8628C24.7512 28.4188 24.5165 28.9815 24.0512 29.3028C23.5952 29.6362 22.9885 29.6762 22.4912 29.4095L16.5858 26.3295C16.3805 26.2202 16.1525 26.1615 15.9192 26.1548H15.5578C15.4325 26.1735 15.3099 26.2135 15.1979 26.2748L9.29118 29.3695C8.99918 29.5162 8.66852 29.5682 8.34452 29.5162C7.55518 29.3668 7.02852 28.6148 7.15785 27.8215L8.34452 21.2615C8.42318 20.7828 8.26452 20.2962 7.91918 19.9562L3.10452 15.2895C2.70185 14.8988 2.56185 14.3122 2.74585 13.7828C2.92452 13.2548 3.38052 12.8695 3.93118 12.7828L10.5578 11.8215C11.0619 11.7695 11.5045 11.4628 11.7312 11.0095L14.6512 5.02284C14.7205 4.88951 14.8099 4.76685 14.9179 4.66285L15.0378 4.56951C15.1005 4.50018 15.1725 4.44285 15.2525 4.39618L15.3979 4.34285L15.6245 4.24951H16.1859C16.6872 4.30151 17.1285 4.60151 17.3592 5.04951L20.3179 11.0095C20.5312 11.4455 20.9459 11.7482 21.4245 11.8215L28.0512 12.7828C28.6112 12.8628 29.0792 13.2495 29.2645 13.7828C29.4392 14.3175 29.2885 14.9042 28.8779 15.2895L23.8912 20.0095Z" fill="#FD853A"/>
<path d="M55.8912 20.0095C55.5459 20.3442 55.3872 20.8282 55.4659 21.3028L56.6512 27.8628C56.7512 28.4188 56.5165 28.9815 56.0512 29.3028C55.5952 29.6362 54.9885 29.6762 54.4912 29.4095L48.5858 26.3295C48.3805 26.2202 48.1525 26.1615 47.9192 26.1548H47.5578C47.4325 26.1735 47.3099 26.2135 47.1979 26.2748L41.2912 29.3695C40.9992 29.5162 40.6685 29.5682 40.3445 29.5162C39.5552 29.3668 39.0285 28.6148 39.1579 27.8215L40.3445 21.2615C40.4232 20.7828 40.2645 20.2962 39.9192 19.9562L35.1045 15.2895C34.7019 14.8988 34.5619 14.3122 34.7459 13.7828C34.9245 13.2548 35.3805 12.8695 35.9312 12.7828L42.5578 11.8215C43.0619 11.7695 43.5045 11.4628 43.7312 11.0095L46.6512 5.02284C46.7205 4.88951 46.8099 4.76685 46.9179 4.66285L47.0378 4.56951C47.1005 4.50018 47.1725 4.44285 47.2525 4.39618L47.3979 4.34285L47.6245 4.24951H48.1859C48.6872 4.30151 49.1285 4.60151 49.3592 5.04951L52.3179 11.0095C52.5312 11.4455 52.9459 11.7482 53.4245 11.8215L60.0512 12.7828C60.6112 12.8628 61.0792 13.2495 61.2645 13.7828C61.4392 14.3175 61.2885 14.9042 60.8779 15.2895L55.8912 20.0095Z" fill="#FD853A"/>
<path d="M87.8912 20.0095C87.5459 20.3442 87.3872 20.8282 87.4659 21.3028L88.6512 27.8628C88.7512 28.4188 88.5165 28.9815 88.0512 29.3028C87.5952 29.6362 86.9885 29.6762 86.4912 29.4095L80.5858 26.3295C80.3805 26.2202 80.1525 26.1615 79.9192 26.1548H79.5578C79.4325 26.1735 79.3099 26.2135 79.1979 26.2748L73.2912 29.3695C72.9992 29.5162 72.6685 29.5682 72.3445 29.5162C71.5552 29.3668 71.0285 28.6148 71.1579 27.8215L72.3445 21.2615C72.4232 20.7828 72.2645 20.2962 71.9192 19.9562L67.1045 15.2895C66.7019 14.8988 66.5619 14.3122 66.7459 13.7828C66.9245 13.2548 67.3805 12.8695 67.9312 12.7828L74.5578 11.8215C75.0619 11.7695 75.5045 11.4628 75.7312 11.0095L78.6512 5.02284C78.7205 4.88951 78.8099 4.76685 78.9179 4.66285L79.0378 4.56951C79.1005 4.50018 79.1725 4.44285 79.2525 4.39618L79.3979 4.34285L79.6245 4.24951H80.1859C80.6872 4.30151 81.1285 4.60151 81.3592 5.04951L84.3179 11.0095C84.5312 11.4455 84.9459 11.7482 85.4245 11.8215L92.0512 12.7828C92.6112 12.8628 93.0792 13.2495 93.2645 13.7828C93.4392 14.3175 93.2885 14.9042 92.8779 15.2895L87.8912 20.0095Z" fill="#FD853A"/>
<path d="M119.891 20.0095C119.546 20.3442 119.387 20.8282 119.466 21.3028L120.651 27.8628C120.751 28.4188 120.517 28.9815 120.051 29.3028C119.595 29.6362 118.989 29.6762 118.491 29.4095L112.586 26.3295C112.381 26.2202 112.153 26.1615 111.919 26.1548H111.558C111.433 26.1735 111.31 26.2135 111.198 26.2748L105.291 29.3695C104.999 29.5162 104.669 29.5682 104.345 29.5162C103.555 29.3668 103.029 28.6148 103.158 27.8215L104.345 21.2615C104.423 20.7828 104.265 20.2962 103.919 19.9562L99.1045 15.2895C98.7019 14.8988 98.5619 14.3122 98.7459 13.7828C98.9245 13.2548 99.3805 12.8695 99.9312 12.7828L106.558 11.8215C107.062 11.7695 107.505 11.4628 107.731 11.0095L110.651 5.02284C110.721 4.88951 110.81 4.76685 110.918 4.66285L111.038 4.56951C111.101 4.50018 111.173 4.44285 111.253 4.39618L111.398 4.34285L111.625 4.24951H112.186C112.687 4.30151 113.129 4.60151 113.359 5.04951L116.318 11.0095C116.531 11.4455 116.946 11.7482 117.425 11.8215L124.051 12.7828C124.611 12.8628 125.079 13.2495 125.265 13.7828C125.439 14.3175 125.289 14.9042 124.878 15.2895L119.891 20.0095Z" fill="#FD853A"/>
<path d="M151.891 20.0095C151.546 20.3442 151.387 20.8282 151.466 21.3028L152.651 27.8628C152.751 28.4188 152.517 28.9815 152.051 29.3028C151.595 29.6362 150.989 29.6762 150.491 29.4095L144.586 26.3295C144.381 26.2202 144.153 26.1615 143.919 26.1548H143.558C143.433 26.1735 143.31 26.2135 143.198 26.2748L137.291 29.3695C136.999 29.5162 136.669 29.5682 136.345 29.5162C135.555 29.3668 135.029 28.6148 135.158 27.8215L136.345 21.2615C136.423 20.7828 136.265 20.2962 135.919 19.9562L131.105 15.2895C130.702 14.8988 130.562 14.3122 130.746 13.7828C130.925 13.2548 131.381 12.8695 131.931 12.7828L138.558 11.8215C139.062 11.7695 139.505 11.4628 139.731 11.0095L142.651 5.02284C142.721 4.88951 142.81 4.76685 142.918 4.66285L143.038 4.56951C143.101 4.50018 143.173 4.44285 143.253 4.39618L143.398 4.34285L143.625 4.24951H144.186C144.687 4.30151 145.129 4.60151 145.359 5.04951L148.318 11.0095C148.531 11.4455 148.946 11.7482 149.425 11.8215L156.051 12.7828C156.611 12.8628 157.079 13.2495 157.265 13.7828C157.439 14.3175 157.289 14.9042 156.878 15.2895L151.891 20.0095Z" fill="#FD853A"/>
</svg>
